<svg width="41" height="41" viewBox="0 0 41 41" fill="none" xmlns="http://www.w3.org/2000/svg">
<rect x="0.290039" y="0.780273" width="39.9" height="39.9" rx="5.32" fill="#E5F6FD"/>
<path d="M7 35C7 29.1225 11.3462 24.2602 17 23.4515M33.4543 25.3397C33.3407 25.3465 33.2262 25.35 33.1112 25.35C31.4037 25.35 29.8462 24.5873 28.6667 23.3333C27.4872 24.5873 25.9297 25.3498 24.2222 25.3498C24.1072 25.3498 23.9927 25.3463 23.879 25.3395C23.7403 25.9755 23.6667 26.6425 23.6667 27.3298C23.6667 31.0202 25.7913 34.1208 28.6667 35C31.542 34.1208 33.6667 31.0202 33.6667 27.3298C33.6667 26.6425 33.593 25.9755 33.4543 25.3397ZM25.3333 11.6667C25.3333 15.3486 22.3485 18.3333 18.6667 18.3333C14.9848 18.3333 12 15.3486 12 11.6667C12 7.98477 14.9848 5 18.6667 5C22.3485 5 25.3333 7.98477 25.3333 11.6667Z" stroke="#009ED8" stroke-width="2" stroke-linecap="round" stroke-linejoin="round"/>
</svg>
