<svg width="41" height="41" viewBox="0 0 41 41" fill="none" xmlns="http://www.w3.org/2000/svg">
<rect x="0.570312" y="0.780273" width="39.9" height="39.9" rx="5.32" fill="#E7E5FF"/>
<path fill-rule="evenodd" clip-rule="evenodd" d="M9.46732 3.43994C8.22647 3.43994 7.2207 4.44571 7.2207 5.68656V34.4433C7.2207 35.6842 8.22647 36.6899 9.46732 36.6899H31.0349C32.2758 36.6899 33.2815 35.6842 33.2815 34.4433V5.68656C33.2815 4.44571 32.2758 3.43994 31.0349 3.43994H9.46732ZM13.1873 4.33851H9.46732C8.72263 4.33851 8.11927 4.94185 8.11927 5.68656V34.4433C8.11927 35.188 8.72261 35.7914 9.46732 35.7914H31.0349C31.7796 35.7914 32.3829 35.188 32.3829 34.4433V5.68656C32.3829 4.94187 31.7796 4.33851 31.0349 4.33851H27.3149L26.7235 6.11278C26.5401 6.66315 26.0248 7.03454 25.4446 7.03454H15.058C14.4779 7.03454 13.9626 6.66313 13.7792 6.11278L13.1873 4.33851ZM26.3678 4.33851H14.1349L14.6317 5.8285C14.6928 6.01217 14.8646 6.13565 15.058 6.13565H25.4446C25.638 6.13565 25.8097 6.01216 25.8708 5.8285L26.3678 4.33851Z" fill="#817AF3" fill-opacity="0.8"/>
<path fill-rule="evenodd" clip-rule="evenodd" d="M11.2656 13.3251C11.2656 12.5807 11.869 11.9771 12.6137 11.9771H14.4108C15.1555 11.9771 15.7589 12.5807 15.7589 13.3251V15.1222C15.7589 15.8669 15.1555 16.4703 14.4108 16.4703H12.6137C11.869 16.4703 11.2656 15.867 11.2656 15.1222V13.3251ZM12.6137 12.8757C12.3654 12.8757 12.1642 13.0769 12.1642 13.3251V15.1222C12.1642 15.3705 12.3654 15.5717 12.6137 15.5717H14.4108C14.6591 15.5717 14.8603 15.3705 14.8603 15.1222V13.3251C14.8603 13.0769 14.6591 12.8757 14.4108 12.8757H12.6137Z" fill="#817AF3" fill-opacity="0.8"/>
<path fill-rule="evenodd" clip-rule="evenodd" d="M11.2656 20.0648C11.2656 19.3205 11.869 18.7168 12.6137 18.7168H14.4108C15.1555 18.7168 15.7589 19.3204 15.7589 20.0648V21.862C15.7589 22.6067 15.1555 23.21 14.4108 23.21H12.6137C11.869 23.21 11.2656 22.6067 11.2656 21.862V20.0648ZM12.6137 19.6154C12.3654 19.6154 12.1642 19.8166 12.1642 20.0648V21.862C12.1642 22.1102 12.3654 22.3114 12.6137 22.3114H14.4108C14.6591 22.3114 14.8603 22.1102 14.8603 21.862V20.0648C14.8603 19.8166 14.6591 19.6154 14.4108 19.6154H12.6137Z" fill="#817AF3" fill-opacity="0.8"/>
<path fill-rule="evenodd" clip-rule="evenodd" d="M11.2656 26.8046C11.2656 26.0602 11.869 25.4565 12.6137 25.4565H14.4108C15.1555 25.4565 15.7589 26.0602 15.7589 26.8046V28.6017C15.7589 29.3464 15.1555 29.9498 14.4108 29.9498H12.6137C11.869 29.9498 11.2656 29.3464 11.2656 28.6017V26.8046ZM12.6137 26.3551C12.3654 26.3551 12.1642 26.5564 12.1642 26.8046V28.6017C12.1642 28.85 12.3654 29.0512 12.6137 29.0512H14.4108C14.6591 29.0512 14.8603 28.85 14.8603 28.6017V26.8046C14.8603 26.5564 14.6591 26.3551 14.4108 26.3551H12.6137Z" fill="#817AF3" fill-opacity="0.8"/>
<path fill-rule="evenodd" clip-rule="evenodd" d="M17.5547 14.2236C17.5547 13.9753 17.7559 13.7744 18.0041 13.7744H29.2372C29.4855 13.7744 29.6867 13.9753 29.6867 14.2236C29.6867 14.4718 29.4855 14.673 29.2372 14.673H18.0041C17.7559 14.673 17.5547 14.4718 17.5547 14.2236Z" fill="#817AF3" fill-opacity="0.8"/>
<path fill-rule="evenodd" clip-rule="evenodd" d="M17.5547 20.9633C17.5547 20.7151 17.7559 20.5142 18.0041 20.5142H29.2372C29.4855 20.5142 29.6867 20.7151 29.6867 20.9633C29.6867 21.2115 29.4855 21.4128 29.2372 21.4128H18.0041C17.7559 21.4128 17.5547 21.2115 17.5547 20.9633Z" fill="#817AF3" fill-opacity="0.8"/>
<path fill-rule="evenodd" clip-rule="evenodd" d="M17.5547 27.7035C17.5547 27.4553 17.7559 27.2544 18.0041 27.2544H29.2372C29.4855 27.2544 29.6867 27.4553 29.6867 27.7035C29.6867 27.9518 29.4855 28.153 29.2372 28.153H18.0041C17.7559 28.153 17.5547 27.9518 17.5547 27.7035Z" fill="#817AF3" fill-opacity="0.8"/>
</svg>
