<svg width="41" height="41" viewBox="0 0 41 41" fill="none" xmlns="http://www.w3.org/2000/svg">
<rect x="0.890625" y="0.780273" width="39.9" height="39.9" rx="5.32" fill="#E5F6FD"/>
<path d="M31.8236 12.0572C31.7755 11.623 31.4375 11.285 31.0033 11.285H26.9979C26.9979 7.71385 24.0541 4.77002 20.4828 4.77002C16.9116 4.77002 13.9678 7.66568 13.9678 11.285H9.96241C9.52817 11.285 9.1902 11.623 9.14207 12.0572L7.21191 33.5804V33.677C7.21191 36.0899 9.43196 38.02 12.1343 38.02H28.8316C31.534 38.02 33.754 36.0899 33.754 33.677V33.5804L31.8236 12.0572ZM20.483 6.45922C23.1373 6.45922 25.3088 8.63074 25.3088 11.285H15.6572C15.6572 8.63109 17.8287 6.45922 20.483 6.45922ZM28.8315 36.3792H12.1342C10.3488 36.3792 8.90095 35.1728 8.85286 33.725L10.6868 12.974H13.9681V15.8696C13.9681 16.3039 14.3542 16.69 14.7885 16.69C15.2227 16.69 15.6088 16.3039 15.6088 15.8696V12.974H25.3087V15.8696C25.3087 16.3039 25.6948 16.69 26.129 16.69C26.5633 16.69 26.9494 16.3039 26.9494 15.8696V12.974H30.2308L32.0647 33.725C32.065 35.1728 30.6175 36.3792 28.8317 36.3792H28.8315Z" fill="#009ED8"/>
</svg>
