<svg width="41" height="41" viewBox="0 0 41 41" fill="none" xmlns="http://www.w3.org/2000/svg">
<rect x="0.170898" y="0.780273" width="39.9" height="39.9" rx="5.32" fill="#EBFFED"/>
<path d="M25.3602 18.1881H17.204C16.8869 18.1881 16.6299 17.9527 16.6299 17.6622C16.6299 17.3717 16.8868 17.1362 17.204 17.1362H25.3599C25.677 17.1362 25.934 17.3716 25.934 17.6622C25.934 17.9527 25.677 18.1881 25.3602 18.1881H25.3602Z" fill="#58D365" fill-opacity="0.7"/>
<path d="M25.3602 22.0094H17.204C16.8869 22.0094 16.6299 21.774 16.6299 21.4835C16.6299 21.193 16.8868 20.9575 17.204 20.9575H25.3599C25.677 20.9575 25.934 21.1929 25.934 21.4835C25.934 21.774 25.677 22.0094 25.3602 22.0094H25.3602Z" fill="#58D365" fill-opacity="0.7"/>
<path d="M17.288 25.5838C16.9709 25.5838 16.7139 25.3484 16.7139 25.0579C16.7139 24.7674 16.9708 24.5319 17.288 24.5319C20.3598 24.5319 22.9548 23.0647 22.9548 21.328C22.9548 19.5911 20.3596 18.1237 17.288 18.1237C16.9709 18.1237 16.7139 17.8883 16.7139 17.5977C16.7139 17.3073 16.9708 17.0718 17.288 17.0718C21.1096 17.0718 24.1031 18.9413 24.1031 21.3278C24.1031 23.7142 21.1096 25.5838 17.288 25.5838V25.5838Z" fill="#58D365" fill-opacity="0.7"/>
<path d="M23.4224 31.7702C23.2695 31.7702 23.1171 31.7146 23.0039 31.6046L16.9419 25.6956C16.7247 25.4838 16.736 25.151 16.967 24.9521C17.198 24.7534 17.5612 24.7637 17.7785 24.9751L23.8405 30.8841C24.0577 31.0959 24.0464 31.4287 23.8154 31.6276C23.7045 31.7229 23.5633 31.7702 23.4222 31.7702L23.4224 31.7702Z" fill="#58D365" fill-opacity="0.7"/>
<path d="M5.53328 21.0109H8.30473V35.7919C8.30473 36.3093 8.71122 36.7157 9.22855 36.7157H33.2478C33.7651 36.7157 34.1716 36.3093 34.1716 35.7919V21.0109H36.943C37.756 21.0109 38.1625 20.0131 37.608 19.422L21.9032 3.71717C21.5335 3.34753 20.9425 3.34753 20.6097 3.71717L4.86853 19.422C4.31409 20.0131 4.72057 21.0109 5.53355 21.0109H5.53328ZM21.2382 5.67552L34.7259 19.1632H33.2479C32.7306 19.1632 32.3241 19.5697 32.3241 20.0871V34.8681H10.1525V20.0871C10.1525 19.5697 9.746 19.1632 9.22868 19.1632H7.7507L21.2382 5.67552Z" fill="#58D365" fill-opacity="0.7"/>
</svg>
