<svg width="41" height="41" viewBox="0 0 41 41" fill="none" xmlns="http://www.w3.org/2000/svg">
<rect x="0.290039" y="0.780273" width="39.9" height="39.9" rx="5.32" fill="#FFEEDB"/>
<path d="M26.9336 20.5664C26.6562 20.4453 26.3789 20.3359 26.0977 20.2344C28.043 18.6602 29.2852 16.2578 29.2852 13.5703C29.2852 8.84375 25.4414 5 20.7148 5C15.9883 5 12.1445 8.84375 12.1445 13.5703C12.1445 16.2617 13.3906 18.668 15.3359 20.2383C9.3125 22.4375 5 28.2266 5 35.0039H7.85547C7.85547 27.9141 13.625 22.1484 20.7109 22.1484C22.4805 22.1484 24.1914 22.5 25.7969 23.1914L26.9336 20.5664ZM20.7148 7.85547C23.8672 7.85547 26.4297 10.418 26.4297 13.5703C26.4297 16.7227 23.8672 19.2852 20.7148 19.2852C17.5625 19.2852 15 16.7188 15 13.5703C15 10.4219 17.5625 7.85547 20.7148 7.85547ZM24.668 27.0039C24.668 27.4023 24.8867 27.7656 25.2383 27.9492L30.2383 30.5898C30.3945 30.6719 30.5664 30.7148 30.7383 30.7148C30.9102 30.7148 31.082 30.6719 31.2383 30.5898L36.2383 27.9492C36.5898 27.7617 36.8086 27.3984 36.8086 27.0039C36.8086 26.6094 36.5898 26.2422 36.2383 26.0586L31.2383 23.4141C30.9258 23.25 30.5508 23.25 30.2383 23.4141L25.2383 26.0586C24.8867 26.2422 24.668 26.6055 24.668 27.0039ZM30.7383 25.5742L33.4453 27.0039L30.7383 28.4336L28.0312 27.0039L30.7383 25.5742Z" fill="#DBA362"/>
<path d="M30.7383 31.9609L24.9961 28.9258L23.9961 30.8203L30.7383 34.3828L37.4531 30.8359L36.4531 28.9414L30.7383 31.9609Z" fill="#DBA362"/>
<path d="M30.7383 35.3984L24.9961 32.3672L23.9961 34.2578L30.7383 37.8242L37.4297 34.2852L36.4297 32.3906L30.7383 35.3984Z" fill="#DBA362"/>
</svg>
