<svg width="40" height="41" viewBox="0 0 40 41" fill="none" xmlns="http://www.w3.org/2000/svg">
<rect x="0.0703125" y="0.780273" width="39.9" height="39.9" rx="5.32" fill="#ECEAFF"/>
<path d="M31.0459 10.9519C29.6632 8.82008 27.7698 7.06755 25.5376 5.85349C23.3055 4.63942 20.8053 4.0023 18.2644 4C14.2176 4.00405 10.3378 5.61326 7.47608 8.47453C4.6144 11.3358 3.00463 15.2154 3 19.2622C3.00181 21.8041 3.63892 24.3052 4.85341 26.5382C6.0679 28.7712 7.82125 30.6652 9.95406 32.0481C11.3368 34.1799 13.2302 35.9324 15.4624 37.1465C17.6945 38.3606 20.1947 38.9977 22.7356 39C26.7824 38.9959 30.6622 37.3867 33.5239 34.5255C36.3856 31.6642 37.9954 27.7846 38 23.7378C37.9982 21.1959 37.3611 18.6948 36.1466 16.4618C34.9321 14.2288 33.1788 12.3348 31.0459 10.9519ZM31.3369 19.2644C31.3334 22.7308 29.9551 26.0542 27.5045 28.5057C25.0538 30.9573 21.7308 32.3366 18.2644 32.3412C14.797 32.3372 11.4729 30.9579 9.02133 28.5059C6.56976 26.0539 5.19097 22.7295 5.1875 19.2622C5.19155 15.7954 6.57066 12.4719 9.02224 10.0207C11.4738 7.56953 14.7976 6.19097 18.2644 6.1875C21.7306 6.19155 25.0536 7.57043 27.5043 10.0216C29.9551 12.4728 31.3334 15.7982 31.3369 19.2644ZM22.7356 36.8125C19.8698 36.8135 17.0842 35.8667 14.8125 34.1197C15.941 34.3855 17.0962 34.522 18.2556 34.5266C22.302 34.5214 26.1811 32.9113 29.0419 30.0497C31.9027 27.1881 33.5116 23.3086 33.5156 19.2622C33.5155 18.101 33.3827 16.9436 33.1197 15.8125C34.867 18.0849 35.8138 20.8713 35.8125 23.7378C35.8084 27.2046 34.4293 30.5281 31.9778 32.9793C29.5262 35.4305 26.2024 36.809 22.7356 36.8125ZM17.1706 9.46875V10.5625H16.125C14.9647 10.5625 13.8519 11.0234 13.0314 11.8439C12.2109 12.6644 11.75 13.7772 11.75 14.9375C11.75 16.0978 12.2109 17.2106 13.0314 18.0311C13.8519 18.8516 14.9647 19.3125 16.125 19.3125H17.1706V24.7812H16.6719C15.947 24.7801 15.2522 24.4916 14.7397 23.9791C14.2271 23.4665 13.9387 22.7717 13.9375 22.0469C13.9375 21.7568 13.8223 21.4786 13.6171 21.2735C13.412 21.0684 13.1338 20.9531 12.8438 20.9531C12.5537 20.9531 12.2755 21.0684 12.0704 21.2735C11.8652 21.4786 11.75 21.7568 11.75 22.0469C11.7517 23.3517 12.2708 24.6026 13.1935 25.5252C14.1162 26.4479 15.367 26.967 16.6719 26.9688H17.1706V29.1562C17.1706 29.4463 17.2859 29.7245 17.491 29.9296C17.6961 30.1348 17.9743 30.25 18.2644 30.25C18.5545 30.25 18.8327 30.1348 19.0378 29.9296C19.2429 29.7245 19.3581 29.4463 19.3581 29.1562V26.9688H19.9531C21.258 26.967 22.5088 26.4479 23.4315 25.5252C24.3542 24.6026 24.8733 23.3517 24.875 22.0469C24.8733 20.742 24.3542 19.4912 23.4315 18.5685C22.5088 17.6458 21.258 17.1267 19.9531 17.125H19.3581V12.75H20.5C21.0802 12.75 21.6366 12.9805 22.0468 13.3907C22.457 13.8009 22.6875 14.3573 22.6875 14.9375V16.0312C22.6875 16.3213 22.8027 16.5995 23.0079 16.8046C23.213 17.0098 23.4912 17.125 23.7812 17.125C24.0713 17.125 24.3495 17.0098 24.5546 16.8046C24.7598 16.5995 24.875 16.3213 24.875 16.0312V14.9375C24.875 13.7772 24.4141 12.6644 23.5936 11.8439C22.7731 11.0234 21.6603 10.5625 20.5 10.5625H19.3581V9.46875C19.3581 9.17867 19.2429 8.90047 19.0378 8.69535C18.8327 8.49023 18.5545 8.375 18.2644 8.375C17.9743 8.375 17.6961 8.49023 17.491 8.69535C17.2859 8.90047 17.1706 9.17867 17.1706 9.46875ZM22.6875 22.0469C22.6863 22.7717 22.3979 23.4665 21.8853 23.9791C21.3728 24.4916 20.678 24.7801 19.9531 24.7812H19.3581V19.3125H19.9531C20.678 19.3137 21.3728 19.6021 21.8853 20.1147C22.3979 20.6272 22.6863 21.322 22.6875 22.0469ZM17.1706 17.125H16.125C15.5448 17.125 14.9884 16.8945 14.5782 16.4843C14.168 16.0741 13.9375 15.5177 13.9375 14.9375C13.9375 14.3573 14.168 13.8009 14.5782 13.3907C14.9884 12.9805 15.5448 12.75 16.125 12.75H17.1706V17.125Z" fill="#817AF3" fill-opacity="0.6"/>
</svg>
