<svg width="41" height="41" viewBox="0 0 41 41" fill="none" xmlns="http://www.w3.org/2000/svg">
<rect x="0.290039" y="0.780273" width="39.9" height="39.9" rx="5.32" fill="#FFEEDB"/>
<path d="M8.80589 4.6373C8.05245 4.6373 7.2971 5.01267 6.87424 5.64535L3.46897 10.3968L3.46283 10.4054L3.45811 10.4148C3.45654 10.418 3.45493 10.4212 3.45328 10.4245C3.41743 10.4959 3.36505 10.6003 3.36505 10.7119V34.0033C3.36505 35.2253 4.33557 36.1962 5.5579 36.1962H34.6721C35.8958 36.1962 36.865 35.1842 36.865 34.0033L36.8647 10.7384C36.8809 10.6926 36.8836 10.6479 36.879 10.607H36.9513L36.8004 10.3966L33.3938 5.64328L33.393 5.6421C32.9338 5.01609 32.2217 4.63702 31.4635 4.63702L23.2244 4.6373H8.80589ZM24.096 17.8814C24.0813 17.8814 24.0682 17.8814 24.0565 17.8814H24.096ZM16.174 17.9209L16.2135 17.9209C16.2019 17.9209 16.1888 17.9209 16.174 17.9209ZM20.0707 15.705L16.307 17.7788V10.8096L17.7792 5.69538H22.5298L23.963 10.7698V17.7405L20.1982 15.7045L20.1343 15.67L20.0707 15.705ZM7.72607 6.23374L7.72607 6.23374L7.72679 6.23272C7.97638 5.87624 8.36871 5.69538 8.80624 5.69538H16.6714L15.4001 10.1827H4.90557L7.72607 6.23374ZM24.5447 18.7166L24.5559 18.7118L24.566 18.705C24.8374 18.5242 25.0215 18.2069 25.0215 17.8815L25.021 11.2408H35.8461L35.8464 34.0031C35.8464 34.6399 35.3146 35.1378 34.7117 35.1378H5.55791C4.92116 35.1378 4.42321 34.606 4.42321 34.0031V11.2408H15.2483V17.8815C15.2483 18.2499 15.4352 18.5262 15.7037 18.705C15.8493 18.8022 16.0353 18.8462 16.2133 18.8462C16.3535 18.8462 16.5355 18.8017 16.6779 18.7086L20.1349 16.8442L23.5958 18.7107C23.9234 18.8969 24.2478 18.8438 24.5447 18.7166ZM31.4638 5.69538C31.8935 5.69538 32.291 5.9102 32.5456 6.23602L35.3646 10.1827H24.9097L23.6384 5.69541L31.4638 5.69538Z" fill="#DBA362" stroke="#DBA362" stroke-width="0.266"/>
<path d="M16.9658 10.1824H16.8328V10.3154V11.1076V11.2406H16.9658H23.3037H23.4367V11.1076V10.3154V10.1824H23.3037H16.9658Z" fill="#DBA362" stroke="#DBA362" stroke-width="0.266"/>
</svg>
