<svg width="41" height="41" viewBox="0 0 41 41" fill="none" xmlns="http://www.w3.org/2000/svg">
<rect x="0.570312" y="0.780273" width="39.9" height="39.9" rx="5.32" fill="#FFEEDB"/>
<path fill-rule="evenodd" clip-rule="evenodd" d="M4.96571 23.0894C4.88423 22.8552 5.00804 22.5991 5.2422 22.5161C16.272 18.6766 25.9287 13.0291 33.9688 5.73625L31.6826 5.86054C31.4362 5.87327 31.2228 5.68413 31.2094 5.43529C31.1959 5.18842 31.3858 4.97555 31.6336 4.96282L35.1783 4.77002H35.2258C35.343 4.77614 35.4545 4.8285 35.534 4.91585C35.6251 5.01518 35.6667 5.15 35.6468 5.28384L35.1352 8.79691C35.1027 9.02054 34.9106 9.1808 34.6914 9.1808C34.6699 9.1808 34.6483 9.17909 34.6261 9.17542C34.3804 9.13921 34.2106 8.91239 34.2461 8.66723L34.5764 6.39788C26.4461 13.774 16.6847 19.4847 5.53717 23.3657C5.48824 23.3835 5.43857 23.3909 5.38914 23.3909C5.20368 23.3909 5.0302 23.2754 4.96537 23.0897L4.96571 23.0894ZM37.2915 37.1207V13.8924H33.8816V37.1207H37.2915ZM37.741 12.9929H33.4327C33.1846 12.9929 32.9832 13.1945 32.9832 13.4416V37.5695C32.9832 37.8183 33.1841 38.0182 33.4327 38.0182H37.741C37.9893 38.0182 38.1904 37.8181 38.1904 37.5695V13.4416C38.1904 13.1948 37.9891 12.9929 37.741 12.9929ZM27.9439 37.1207V18.7756H24.534V37.1207H27.9439ZM28.3934 17.8761H24.0849C23.8368 17.8761 23.6354 18.0782 23.6354 18.3251V37.5697C23.6354 37.8186 23.8368 38.0185 24.0849 38.0185H28.3931C28.6412 38.0185 28.8426 37.8183 28.8426 37.5697L28.8423 18.3251C28.8428 18.0782 28.6415 17.8761 28.3933 17.8761H28.3934ZM18.5963 37.1207V22.723H15.1864V37.1201H18.5963V37.1207ZM19.0458 21.826H14.7375C14.4894 21.826 14.288 22.0261 14.288 22.2747V37.5695C14.288 37.8183 14.4894 38.0182 14.7375 38.0182H19.0458C19.2938 38.0182 19.4952 37.8181 19.4952 37.5695V22.2747C19.4952 22.0259 19.2939 21.826 19.0458 21.826ZM9.24868 37.1207H5.83934V28.5407H9.24918V37.1207H9.24868ZM9.69815 27.6425H5.3899C5.14156 27.6425 4.94043 27.8426 4.94043 28.0915V37.5697C4.94043 37.8186 5.14131 38.0185 5.3899 38.0185H9.69815C9.94625 38.0185 10.1476 37.8183 10.1476 37.5697V28.0915C10.1476 27.8426 9.94625 27.6427 9.69815 27.6427V27.6425Z" fill="#DBA362" fill-opacity="0.8"/>
<path d="M5.19779 22.3907L5.19847 22.3905C16.0853 18.6008 25.6305 13.0478 33.6006 5.88946L31.6898 5.99335L31.6894 5.99337C31.3705 6.00984 31.094 5.76519 31.0766 5.44248M5.19779 22.3907L31.6336 4.96282L31.6268 4.83C31.6268 4.83 31.6267 4.83001 31.6266 4.83001C31.3049 4.84664 31.0592 5.12265 31.0766 5.44248M5.19779 22.3907C4.92622 22.4869 4.76895 22.7636 4.81582 23.0389L4.80873 23.0445L4.8398 23.1335C4.92387 23.3743 5.14894 23.5239 5.38914 23.5239C5.45162 23.5239 5.51667 23.5146 5.58185 23.4909C16.6197 19.648 26.3024 14.013 34.3916 6.7439M5.19779 22.3907L34.3916 6.7439M31.0766 5.44248L31.2094 5.43529L31.0766 5.44253C31.0766 5.44252 31.0766 5.4425 31.0766 5.44248ZM34.3916 6.7439L34.1145 8.64807L34.1144 8.64818C34.0685 8.96599 34.2884 9.25947 34.6055 9.30683C34.6059 9.30689 34.6063 9.30694 34.6067 9.307L34.3916 6.7439ZM28.9753 18.3253C28.976 18.0048 28.7149 17.7431 28.3934 17.7431H24.0849C23.7633 17.7431 23.5024 18.0048 23.5024 18.3251V37.5697C23.5024 37.8924 23.7637 38.1515 24.0849 38.1515H28.3931C28.7143 38.1515 28.9756 37.8921 28.9756 37.5697L28.9753 18.3253ZM28.9753 18.3253L28.8423 18.3251L28.9753 18.3251V18.3253ZM35.6324 4.82631C35.6323 4.8262 35.6322 4.8261 35.6321 4.82599L35.534 4.91585L35.6324 4.82631ZM9.83115 27.5249V27.5095H9.69815H5.3899C5.06839 27.5095 4.80743 27.7689 4.80743 28.0915V37.5697C4.80743 37.8923 5.06818 38.1515 5.3899 38.1515H9.69815C10.0193 38.1515 10.2806 37.8921 10.2806 37.5697V28.0915C10.2806 27.8147 10.0884 27.5848 9.83115 27.5249ZM34.0146 14.0254H37.1585V36.9877H34.0146V14.0254ZM37.741 12.8599H33.4327C33.1113 12.8599 32.8502 13.121 32.8502 13.4416V37.5695C32.8502 37.8921 33.111 38.1512 33.4327 38.1512H37.741C38.0624 38.1512 38.3234 37.8918 38.3234 37.5695V13.4416C38.3234 13.1213 38.0625 12.8599 37.741 12.8599ZM24.667 18.9086H27.8109V36.9877H24.667V18.9086ZM15.3194 22.856H18.4633V36.9871H15.3194V22.856ZM19.0458 21.693H14.7375C14.4163 21.693 14.155 21.9523 14.155 22.2747V37.5695C14.155 37.8922 14.4164 38.1512 14.7375 38.1512H19.0458C19.3669 38.1512 19.6282 37.8919 19.6282 37.5695V22.2747C19.6282 21.952 19.3669 21.693 19.0458 21.693ZM9.11618 36.9877H5.97234V28.6737H9.11618V36.9877Z" stroke="#DBA362" stroke-opacity="0.8" stroke-width="0.266"/>
</svg>
