<svg width="40" height="41" viewBox="0 0 40 41" fill="none" xmlns="http://www.w3.org/2000/svg">
<rect x="0.0703125" y="0.780273" width="39.9" height="39.9" rx="5.32" fill="#ECEAFF"/>
<path d="M19.7712 3.43994C16.4642 3.43994 13.2928 4.75363 10.9548 7.09175C8.61643 9.43015 7.30273 12.6016 7.30273 15.9088C7.30273 22.5587 18.6741 35.0271 19.1565 35.5928C19.3151 35.764 19.5383 35.8603 19.7715 35.8589C20.0048 35.8603 20.228 35.764 20.3866 35.5928L21.4339 34.4041V35.0276C21.4339 35.4684 21.6093 35.8915 21.921 36.2032C22.2327 36.5149 22.6555 36.6899 23.0966 36.6899H33.0715C33.5123 36.6899 33.9351 36.5149 34.2468 36.2032C34.5588 35.8915 34.7338 35.4684 34.7338 35.0276V25.0527C34.7338 24.6118 34.5588 24.1888 34.2468 23.8771C33.9351 23.5653 33.5123 23.3903 33.0715 23.3903H29.5552C31.3339 20.3146 32.2401 17.8045 32.2401 15.9091C32.2401 13.7204 31.664 11.5702 30.5697 9.67482C29.4754 7.77923 27.9012 6.20534 26.0058 5.11095C24.1105 4.01656 21.9602 3.44051 19.7715 3.44051L19.7712 3.43994ZM33.0713 35.0268H23.0964V25.052H25.5901V28.377C25.591 28.6651 25.741 28.9323 25.9864 29.0828C26.2319 29.2337 26.5381 29.2465 26.7953 29.1168L28.0836 28.4766L29.3719 29.1168H29.3722C29.488 29.1761 29.616 29.2075 29.7463 29.2081C29.9018 29.2086 30.0546 29.1655 30.1868 29.0834C30.4304 28.9311 30.5781 28.6642 30.5776 28.377V25.0519H33.0713L33.0713 35.0268ZM28.9152 25.052V27.0303L28.4994 26.8059C28.2642 26.6874 27.9864 26.6874 27.7513 26.8059L27.294 27.0303V25.052H28.9152ZM26.4215 23.3896H23.0964C22.6553 23.3896 22.2325 23.5646 21.9208 23.8763C21.6091 24.1881 21.4337 24.6111 21.4337 25.052V31.8348C20.7605 32.6661 20.1785 33.3227 19.7714 33.78C17.4023 31.0784 8.96499 21.1204 8.96499 15.9085C8.96499 12.0477 11.0248 8.48082 14.3682 6.54997C17.7117 4.61912 21.8309 4.61954 25.1739 6.54997C28.5169 8.48039 30.5771 12.0476 30.5771 15.9085C30.5771 17.6458 29.5465 20.2311 27.6178 23.3897L26.4215 23.3896Z" fill="#817AF3" fill-opacity="0.6"/>
<path d="M19.7709 10.0898C18.2277 10.0898 16.7478 10.703 15.6566 11.794C14.5653 12.8852 13.9521 14.3654 13.9521 15.9086C13.9521 17.4516 14.5653 18.9317 15.6566 20.023C16.7478 21.1142 18.2277 21.7271 19.7709 21.7271C21.3142 21.7271 22.794 21.1143 23.8853 20.023C24.9765 18.9317 25.5897 17.4516 25.5897 15.9086C25.5897 14.3654 24.9766 12.8852 23.8853 11.794C22.794 10.703 21.3142 10.0898 19.7709 10.0898ZM19.7709 20.0647C18.6685 20.0647 17.6114 19.6269 16.8322 18.8474C16.0526 18.068 15.6148 17.0108 15.6148 15.9086C15.6148 14.8062 16.0526 13.7491 16.8322 12.9696C17.6115 12.1903 18.6685 11.7522 19.7709 11.7522C20.8734 11.7522 21.9304 12.1903 22.7097 12.9696C23.4892 13.7491 23.927 14.8062 23.927 15.9086C23.927 17.0108 23.4892 18.0681 22.7097 18.8474C21.9303 19.6269 20.8734 20.0647 19.7709 20.0647Z" fill="#817AF3" fill-opacity="0.6"/>
</svg>
