<svg width="41" height="41" viewBox="0 0 41 41" fill="none" xmlns="http://www.w3.org/2000/svg">
<rect x="0.290039" y="0.780273" width="39.9" height="39.9" rx="5.32" fill="#E8F1FD"/>
<path d="M25.0537 11.8714C25.8657 11.8714 26.6447 11.5489 27.2191 10.9746C27.7934 10.4003 28.1159 9.62128 28.1159 8.80924C28.1159 7.99696 27.7933 7.2182 27.2191 6.64387C26.6448 6.06958 25.8657 5.74707 25.0537 5.74707C24.2414 5.74707 23.4627 6.06961 22.8883 6.64387C22.314 7.21817 21.9912 7.99689 21.9912 8.80924C21.9912 9.62128 22.3141 10.4003 22.8883 10.9746C23.4626 11.5489 24.2413 11.8714 25.0537 11.8714ZM25.0537 7.49677C25.4016 7.49677 25.7354 7.635 25.9817 7.88126C26.2276 8.12721 26.3659 8.46105 26.3659 8.80923C26.3659 9.1571 26.2276 9.49094 25.9817 9.7372C25.7354 9.98315 25.4016 10.1217 25.0537 10.1217C24.7055 10.1217 24.3717 9.98316 24.1254 9.7372C23.8795 9.49095 23.7412 9.15711 23.7412 8.80923C23.7412 8.46106 23.8795 8.12722 24.1254 7.88126C24.3717 7.63501 24.7055 7.49677 25.0537 7.49677Z" fill="#629FF4"/>
<path d="M29.8662 14.9338C29.8662 15.746 30.1888 16.5248 30.763 17.0991C31.3373 17.6734 32.1163 17.9959 32.9284 17.9959C33.7407 17.9959 34.5194 17.6734 35.0937 17.0991C35.668 16.5248 35.9909 15.7461 35.9909 14.9338C35.9909 14.1217 35.668 13.3427 35.0937 12.7684C34.5195 12.1941 33.7407 11.8716 32.9284 11.8716C32.1163 11.8716 31.3373 12.1941 30.763 12.7684C30.1887 13.3427 29.8662 14.1217 29.8662 14.9338ZM34.2409 14.9338C34.2409 15.2819 34.1026 15.6158 33.8567 15.8617C33.6104 16.108 33.2766 16.2462 32.9284 16.2462C32.5805 16.2462 32.2467 16.108 32.0004 15.8617C31.7545 15.6158 31.6162 15.2819 31.6162 14.9338C31.6162 14.5859 31.7545 14.252 32.0004 14.0058C32.2467 13.7598 32.5805 13.6213 32.9284 13.6213C33.2766 13.6213 33.6104 13.7598 33.8567 14.0058C34.1026 14.252 34.2409 14.5859 34.2409 14.9338Z" fill="#629FF4"/>
<path d="M24.5345 17.6065C24.7209 17.7451 24.9553 17.8033 25.185 17.7689C25.4148 17.7344 25.6214 17.6099 25.7593 17.4228L33.1962 7.36114V7.36145C33.4836 6.97238 33.4015 6.42403 33.0125 6.13655C32.6234 5.84879 32.075 5.93118 31.7876 6.32025L24.3507 16.3819V16.3816C24.2122 16.5684 24.1539 16.8024 24.1884 17.0322C24.2229 17.262 24.3474 17.4689 24.5344 17.6065L24.5345 17.6065Z" fill="#629FF4"/>
<path d="M11.055 13.1836C9.81273 13.1836 3.61816 13.3105 3.61816 15.8085C3.61816 18.3065 9.81273 18.4335 11.055 18.4335C12.2972 18.4335 18.4918 18.3065 18.4918 15.8085C18.4921 13.3105 12.2975 13.1836 11.055 13.1836ZM11.055 16.6834C8.13287 16.6834 6.24271 16.1802 5.56043 15.8085C6.24305 15.4366 8.13287 14.9334 11.055 14.9334C13.9771 14.9334 15.8672 15.4366 16.5495 15.8082C15.8672 16.1802 13.9774 16.6834 11.055 16.6834Z" fill="#629FF4"/>
<path d="M17.6169 17.7771C17.1836 17.7713 16.8113 18.0841 16.742 18.5119C16.3569 18.8793 14.3579 19.5268 11.0549 19.5268C7.75231 19.5268 5.73982 18.8708 5.36813 18.5119C5.32938 18.0289 4.90644 17.6685 4.42306 17.7069C3.94 17.7457 3.57961 18.1686 3.61804 18.652C3.61804 21.15 9.81261 21.2769 11.0549 21.2769C12.2971 21.2769 18.4917 21.15 18.4917 18.652H18.492C18.492 18.4198 18.3998 18.1973 18.2356 18.0331C18.0715 17.8693 17.849 17.7771 17.6168 17.7771H17.6169Z" fill="#629FF4"/>
<path d="M17.6169 20.8396C17.1836 20.8341 16.8113 21.1466 16.742 21.5744C16.3569 21.9418 14.3579 22.5893 11.0549 22.5893C7.75231 22.5893 5.73982 21.9333 5.36813 21.5744C5.32938 21.0914 4.90644 20.731 4.42306 20.7694C3.94 20.8082 3.57961 21.2311 3.61804 21.7145C3.61804 24.2125 9.81261 24.3394 11.0549 24.3394C12.2971 24.3394 18.4917 24.2125 18.4917 21.7145H18.492C18.492 21.4826 18.3998 21.2598 18.2356 21.0959C18.0715 20.9318 17.849 20.8396 17.6168 20.8396H17.6169Z" fill="#629FF4"/>
<path d="M17.6169 23.9019C17.1836 23.8964 16.8113 24.2088 16.742 24.6367C16.3569 25.0041 14.3579 25.6516 11.0549 25.6516C7.75231 25.6516 5.73982 24.9955 5.36813 24.6367C5.32938 24.1536 4.90644 23.7932 4.42306 23.832C3.94 23.8704 3.57961 24.2937 3.61804 24.7767C3.61804 27.2747 9.81261 27.4017 11.0549 27.4017C12.2971 27.4017 18.4917 27.2747 18.4917 24.7767H18.492C18.492 24.5448 18.3998 24.322 18.2356 24.1582C18.0715 23.994 17.849 23.9019 17.6168 23.9019H17.6169Z" fill="#629FF4"/>
<path d="M17.6169 26.9639C17.1836 26.9584 16.8113 27.2708 16.742 27.699C16.3569 28.0664 14.3579 28.7139 11.0549 28.7139C7.75231 28.7139 5.73982 28.0575 5.36813 27.699C5.32938 27.2156 4.90644 26.8552 4.42306 26.894C3.94 26.9327 3.57961 27.3557 3.61804 27.8387C3.61804 30.3367 9.81261 30.4637 11.0549 30.4637C12.2971 30.4637 18.4917 30.3367 18.4917 27.8387H18.492C18.492 27.6068 18.3998 27.3844 18.2356 27.2202C18.0715 27.056 17.849 26.9639 17.6168 26.9639H17.6169Z" fill="#629FF4"/>
<path d="M17.6169 30.0264C17.1836 30.0209 16.8113 30.3337 16.742 30.7615C16.3569 31.1289 14.3579 31.7764 11.0549 31.7764C7.75231 31.7764 5.73982 31.12 5.36813 30.7615C5.32938 30.2781 4.90644 29.9177 4.42306 29.9565C3.94 29.9952 3.57961 30.4182 3.61804 30.9015C3.61804 33.3995 9.81261 33.5265 11.0549 33.5265C12.2971 33.5265 18.4917 33.3995 18.4917 30.9015H18.492C18.492 30.6693 18.3998 30.4469 18.2356 30.2827C18.0715 30.1185 17.849 30.0264 17.6168 30.0264L17.6169 30.0264Z" fill="#629FF4"/>
<path d="M29.428 26.745C30.6703 26.745 36.8648 26.6181 36.8648 24.1201C36.8648 21.6221 30.6703 21.4951 29.428 21.4951C28.1858 21.4951 21.9912 21.6221 21.9912 24.1201C21.9909 26.6183 28.1855 26.745 29.428 26.745ZM29.428 23.2452C32.3501 23.2452 34.2403 23.7484 34.9226 24.1201C34.2399 24.492 32.3501 24.9952 29.428 24.9952C26.5059 24.9952 24.6158 24.492 23.9335 24.1204C24.6158 23.7484 26.5056 23.2455 29.428 23.2455V23.2452Z" fill="#629FF4"/>
<path d="M35.9903 26.0889C35.5566 26.0834 35.1847 26.3958 35.1151 26.8237C34.73 27.1911 32.7309 27.8386 29.428 27.8386C26.1254 27.8386 24.1129 27.1825 23.7412 26.8237C23.7024 26.3406 23.2795 25.9802 22.7961 26.019C22.313 26.0574 21.9527 26.4807 21.9911 26.9637C21.9911 29.4617 28.1857 29.5887 29.4279 29.5887C30.6701 29.5887 36.8647 29.4617 36.8647 26.9637H36.865C36.865 26.7318 36.7729 26.5091 36.6087 26.3452C36.4445 26.181 36.2221 26.0889 35.9902 26.0889H35.9903Z" fill="#629FF4"/>
<path d="M35.9903 29.1514C35.5566 29.1459 35.1847 29.4583 35.1151 29.8865C34.73 30.2539 32.7309 30.9014 29.428 30.9014C26.1254 30.9014 24.1129 30.245 23.7412 29.8865C23.7024 29.4031 23.2795 29.0427 22.7961 29.0815C22.313 29.1202 21.9527 29.5432 21.9911 30.0262C21.9911 32.5242 28.1857 32.6512 29.4279 32.6512C30.6701 32.6512 36.8647 32.5242 36.8647 30.0262H36.865C36.865 29.7943 36.7729 29.5719 36.6087 29.4077C36.4445 29.2435 36.2221 29.1514 35.9902 29.1514H35.9903Z" fill="#629FF4"/>
<path d="M35.9903 32.2134C35.5566 32.2079 35.1847 32.5207 35.1151 32.9485C34.73 33.3159 32.7309 33.9634 29.428 33.9634C26.1254 33.9634 24.1129 33.307 23.7412 32.9485C23.7024 32.4651 23.2795 32.1047 22.7961 32.1435C22.313 32.1822 21.9527 32.6052 21.9911 33.0886C21.9911 35.5866 28.1857 35.7135 29.4279 35.7135C30.6701 35.7135 36.8647 35.5866 36.8647 33.0886H36.865C36.865 32.8563 36.7729 32.6339 36.6087 32.4697C36.4445 32.3055 36.2221 32.2134 35.9902 32.2134L35.9903 32.2134Z" fill="#629FF4"/>
</svg>
