<svg width="41" height="41" viewBox="0 0 41 41" fill="none" xmlns="http://www.w3.org/2000/svg">
<rect x="0.790039" y="0.780273" width="39.9" height="39.9" rx="5.32" fill="#E5F7FD"/>
<path d="M20.5903 6.1001C12.6057 6.1001 6.10938 12.5965 6.10938 20.581C6.10938 24.151 7.41039 27.4206 9.5599 29.9477C9.58742 29.9901 9.61899 30.0302 9.65586 30.0671C9.66419 30.0754 9.67354 30.0807 9.68187 30.0886C12.3387 33.1328 16.2422 35.0616 20.5904 35.0616C24.9385 35.0616 28.8419 33.1328 31.4989 30.0886C31.5072 30.081 31.5171 30.0752 31.5249 30.0671C31.5618 30.0302 31.5936 29.9896 31.6208 29.9477C33.7704 27.4204 35.0714 24.1506 35.0714 20.581C35.0714 12.5965 28.5748 6.1001 20.5903 6.1001ZM20.5903 33.6138C16.8892 33.6138 13.5463 32.0608 11.1719 29.5751L12.1638 28.5832C13.1221 27.6251 14.3959 27.0973 15.7502 27.0973H25.4304C26.7847 27.0973 28.0585 27.6251 29.0166 28.5829L30.0085 29.5748C27.6342 32.0604 24.2914 33.6138 20.5903 33.6138ZM30.9531 28.4718L30.0405 27.5592C28.8089 26.3276 27.1718 25.6491 25.4304 25.6491H15.7502C14.0088 25.6491 12.3719 26.3276 11.1403 27.5592L10.2277 28.4718C8.55419 26.2799 7.55746 23.545 7.55746 20.581C7.55746 13.3949 13.4037 7.54825 20.5903 7.54825C27.7764 7.54825 33.6231 13.3945 33.6231 20.581C33.6231 23.5452 32.6264 26.2801 30.9531 28.4718ZM20.5903 12.6166C17.3966 12.6166 14.7978 15.215 14.7978 18.409C14.7978 21.6027 17.3963 24.2015 20.5903 24.2015C23.7839 24.2015 26.3827 21.603 26.3827 18.409C26.3827 15.215 23.784 12.6166 20.5903 12.6166ZM20.5903 22.7532C18.1948 22.7532 16.2461 20.8044 16.2461 18.409C16.2461 16.0135 18.1948 14.0648 20.5903 14.0648C22.9857 14.0648 24.9345 16.0136 24.9345 18.409C24.9345 20.8045 22.9857 22.7532 20.5903 22.7532Z" fill="#24B8F1"/>
</svg>
