<svg width="21" height="20" viewBox="0 0 21 20" fill="none" xmlns="http://www.w3.org/2000/svg">
<path d="M1.5 0C0.948 0 0.5 0.448 0.5 1V8C0.5 8.552 0.948 9 1.5 9H8.5C9.052 9 9.5 8.552 9.5 8V1C9.5 0.448 9.052 0 8.5 0H1.5ZM1.5 1H8.5V8H1.5V1ZM12.5 0C11.948 0 11.5 0.448 11.5 1V8C11.5 8.552 11.948 9 12.5 9H19.5C20.052 9 20.5 8.552 20.5 8V1C20.5 0.448 20.052 0 19.5 0H12.5ZM12.5 1H19.5V8H12.5V1ZM12.5 11C11.948 11 11.5 11.448 11.5 12V19C11.5 19.552 11.948 20 12.5 20H19.5C20.052 20 20.5 19.552 20.5 19V12C20.5 11.448 20.052 11 19.5 11H12.5ZM12.5 12H19.5V19H12.5V12ZM1.5 11C0.948 11 0.5 11.448 0.5 12V19C0.5 19.552 0.948 20 1.5 20H8.5C9.052 20 9.5 19.552 9.5 19V12C9.5 11.448 9.052 11 8.5 11H1.5ZM1.5 12H8.5V19H1.5V12Z" fill="white"/>
</svg>
