<svg width="20" height="19" viewBox="0 0 20 19" fill="none" xmlns="http://www.w3.org/2000/svg">
<path d="M19.9462 2.125L18.125 9.375C18.125 9.46125 18.1075 9.54375 18.0763 9.6175C18.0125 9.7675 17.8937 9.8875 17.7437 9.95125C17.6687 9.9825 17.5862 10 17.5 10H5.625L6.125 12.5H16.875C17.2213 12.5 17.5 12.7787 17.5 13.125C17.5 13.4713 17.2213 13.75 16.875 13.75H5.625C5.27875 13.75 5 13.4713 5 13.125L2.625 1.25H0.625C0.28 1.25 0 0.97 0 0.625C0 0.28 0.28 0 0.625 0H3.125C3.47 0 3.75 0.28 3.75 0.625L3.875 1.25H19.375C19.7213 1.25 20 1.53 20 1.875C20 1.96375 19.98 2.04875 19.9462 2.125ZM5.375 8.75H7.5V2.5H4.125L5.375 8.75ZM11.25 2.5H8.125V8.75H11.25V2.5ZM15 2.5H11.875V8.75H15V2.5ZM15.625 2.5V8.75H17.0337L18.6175 2.5H15.6263H15.625ZM6.875 15C7.91125 15 8.75 15.84 8.75 16.875C8.75 17.91 7.91125 18.75 6.875 18.75C5.83875 18.75 5 17.91 5 16.875C5 15.84 5.83875 15 6.875 15ZM6.875 17.5C7.22125 17.5 7.5 17.2213 7.5 16.875C7.5 16.5287 7.22125 16.25 6.875 16.25C6.52875 16.25 6.25 16.5287 6.25 16.875C6.25 17.2213 6.52875 17.5 6.875 17.5ZM15.625 15C16.6612 15 17.5 15.84 17.5 16.875C17.5 17.91 16.6612 18.75 15.625 18.75C14.5888 18.75 13.75 17.91 13.75 16.875C13.75 15.84 14.5888 15 15.625 15ZM15.625 17.5C15.9713 17.5 16.25 17.2213 16.25 16.875C16.25 16.5287 15.9713 16.25 15.625 16.25C15.2787 16.25 15 16.5287 15 16.875C15 17.2213 15.2787 17.5 15.625 17.5Z" fill="white"/>
</svg>
