<svg width="32" height="32" viewBox="0 0 32 32" fill="none" xmlns="http://www.w3.org/2000/svg">
<path d="M2 30H32V32H0V0H2V30ZM9 26C7.343 26 6 24.657 6 23C6 21.343 7.343 20 9 20C9.088 20 10.238 19.988 10 20L13 15.5C12.693 15.029 12 13.604 12 12.999C12 11.342 13.343 9.999 15 9.999C16.657 9.999 18 11.342 18 12.999C18 13.603 17.808 14.529 17.5 15L20.5 20C20.586 19.993 20.912 20 21 20C21.067 20 22.302 19.993 22 20L27 11C26.671 10.518 26 9.627 26 9C26 7.343 27.343 6 29 6C30.657 6 32 7.343 32 9C32 10.657 30.657 12 29 12C28.933 12 28.565 12.004 28.5 12L23.5 21C23.829 21.481 24 22.373 24 23C24 24.657 22.657 26 21 26C19.343 26 18 24.657 18 23C18 22.396 18.692 21.471 19 21L16 16C15.914 16.007 15.088 15.999 15 15.999C14.912 15.999 14.824 15.994 14.738 15.987L11.5 21C11.807 21.471 12 22.395 12 22.999C12 24.656 10.657 26 9 26Z" fill="white"/>
</svg>
